<svg width="19" height="20" viewBox="0 0 19 20" fill="none" xmlns="http://www.w3.org/2000/svg">
<path d="M19 12.58C19 12.22 18.81 11.89 18.51 11.69L11 7V1.5C11 0.67 10.33 0 9.5 0C8.67 0 8 0.67 8 1.5V7L0.49 11.69C0.19 11.88 0 12.22 0 12.58C0 13.28 0.68 13.79 1.36 13.58L8 11.5V17L6.2 18.35C6.07 18.44 6 18.59 6 18.75V19.34C6 19.67 6.32 19.91 6.64 19.82L9.5 19L12.36 19.82C12.68 19.91 13 19.67 13 19.34V18.75C13 18.59 12.93 18.44 12.8 18.35L11 17V11.5L17.64 13.58C18.32 13.79 19 13.28 19 12.58Z" fill="#6B7B80"/>
</svg>
