<svg width="23" height="16" viewBox="0 0 23 16" fill="#6B7B80" xmlns="http://www.w3.org/2000/svg">
<path d="M19.5 4H16.5V0H2.5C1.4 0 0.5 0.9 0.5 2V13H2.5C2.5 14.66 3.84 16 5.5 16C7.16 16 8.5 14.66 8.5 13H14.5C14.5 14.66 15.84 16 17.5 16C19.16 16 20.5 14.66 20.5 13H22.5V8L19.5 4ZM5.5 14.5C4.67 14.5 4 13.83 4 13C4 12.17 4.67 11.5 5.5 11.5C6.33 11.5 7 12.17 7 13C7 13.83 6.33 14.5 5.5 14.5ZM19 5.5L20.96 8H16.5V5.5H19ZM17.5 14.5C16.67 14.5 16 13.83 16 13C16 12.17 16.67 11.5 17.5 11.5C18.33 11.5 19 12.17 19 13C19 13.83 18.33 14.5 17.5 14.5Z" fill="#A4ACAC"/>
</svg>
