<svg width="21" height="22" viewBox="0 0 21 22" fill="none" xmlns="http://www.w3.org/2000/svg">
    <path
        d="M19 20C17.61 20 16.22 19.53 15 18.68C12.56 20.39 9.44001 20.39 7.00001 18.68C5.78001 19.53 4.39001 20 3.00001 20H1.00001V22H3.00001C4.38001 22 5.74001 21.65 7.00001 21.01C9.52001 22.3 12.48 22.3 15 21.01C16.26 21.66 17.62 22 19 22H21V20H19ZM2.95001 18H3.00001C4.60001 18 6.02001 17.12 7.00001 16C7.98001 17.12 9.40001 18 11 18C12.6 18 14.02 17.12 15 16C15.98 17.12 17.4 18 19 18H19.05L20.94 11.32C21.02 11.06 21 10.78 20.88 10.54C20.76 10.3 20.54 10.12 20.28 10.04L19 9.62V5C19 3.9 18.1 3 17 3H14V0H8.00001V3H5.00001C3.90001 3 3.00001 3.9 3.00001 5V9.62L1.71001 10.04C1.45001 10.12 1.23001 10.3 1.11001 10.54C0.990011 10.78 0.960011 11.06 1.05001 11.32L2.95001 18ZM5.00001 5H17V8.97L11 7L5.00001 8.97V5Z"
        fill="#6B7B80" />
</svg>
    